{"glyphs":{":":{"x_min":0,"x_max":329,"ha":329,"o":"m 156 117 l 191 124 q 226 131 242 131 q 285 131 285 86 q 285 69 280 44 l 273 11 l 251 7 q 203 -2 194 -2 q 159 -2 159 34 q 159 44 161 53 l 164 66 q 166 74 166 83 q 166 104 156 117 z m 245 565 l 280 572 q 316 579 332 579 q 374 579 374 534 q 374 516 369 492 l 362 458 l 340 455 q 293 446 283 446 q 249 446 249 481 q 249 491 250 501 l 253 514 q 254 522 254 531 q 254 551 245 565 z"},"$":{"x_min":0,"x_max":675,"ha":675,"o":"m 386 4 q 376 -59 376 -98 q 376 -108 377 -132 q 322 -127 322 -93 q 322 -75 334 -19 l 337 0 q 252 0 191 36 q 130 73 130 125 q 130 160 188 210 q 217 75 349 59 l 403 329 l 363 358 q 252 438 252 514 q 252 589 311 643 q 370 696 476 718 q 479 744 479 776 q 479 796 476 819 q 482 820 486 820 q 500 822 504 822 q 539 822 539 785 q 539 774 532 736 q 531 730 528 718 q 660 718 660 655 q 660 629 633 590 q 598 656 519 668 l 466 402 l 495 382 q 620 299 620 225 q 620 56 386 4 z m 471 668 q 412 657 377 622 q 342 586 342 537 q 342 492 423 432 z m 397 59 q 535 87 535 190 q 535 230 445 298 z"},"?":{"x_min":0,"x_max":554,"ha":554,"o":"m 397 191 q 381 181 356 181 q 297 181 297 231 q 297 302 402 389 l 424 406 q 542 504 542 580 q 542 672 443 672 q 341 672 266 553 q 256 570 256 591 q 256 644 332 692 q 407 741 489 741 q 561 741 601 704 q 642 668 642 604 q 642 512 513 414 l 495 399 q 385 315 385 234 q 385 213 397 191 z m 279 117 l 314 124 q 350 131 366 131 q 408 131 408 86 q 408 68 403 44 l 397 11 l 375 7 q 327 -2 317 -2 q 283 -2 283 34 q 283 44 285 53 l 287 66 q 289 75 289 84 q 289 104 279 117 z"},"<":{"x_min":0,"x_max":675,"ha":675,"o":"m 263 284 q 444 220 521 168 q 597 117 597 60 q 597 40 587 15 q 498 118 269 210 l 221 230 q 163 253 147 265 q 132 276 113 311 q 278 352 447 427 q 616 502 710 577 q 705 478 642 439 q 514 363 263 284 z"},"'":{"x_min":0,"x_max":260,"ha":260,"o":"m 288 581 q 271 575 260 575 q 223 575 218 637 l 216 675 q 208 789 175 820 q 213 840 255 840 q 310 840 310 806 q 310 796 301 754 l 294 723 q 277 638 277 614 q 277 595 288 581 z"},"=":{"x_min":0,"x_max":675,"ha":675,"o":"m 159 304 q 172 370 197 392 q 222 413 286 413 q 304 413 332 412 q 371 410 383 410 l 442 410 q 608 410 670 442 q 652 377 616 357 q 580 337 480 337 l 376 337 q 207 337 159 304 z m 98 132 q 114 208 140 223 q 166 238 280 238 l 465 238 q 610 238 655 270 q 644 198 613 182 q 583 166 458 166 l 277 166 q 160 166 98 132 z"},"a":{"x_min":0,"x_max":792,"ha":792,"o":"m 548 298 q 485 169 394 78 q 302 -12 234 -12 q 183 -12 152 34 q 121 80 121 157 q 121 310 213 426 q 306 542 427 542 q 501 542 587 496 q 600 542 690 542 q 696 542 709 541 q 682 499 667 425 l 659 383 q 645 314 645 221 q 645 114 694 114 q 747 114 839 202 q 930 291 1019 427 l 1057 400 q 966 239 850 132 q 734 24 650 24 q 545 24 545 200 q 545 236 548 298 z m 571 415 q 468 482 400 482 q 327 482 273 392 q 219 303 219 180 q 219 81 284 81 q 354 81 551 388 q 553 392 571 415 z"},"L":{"x_min":0,"x_max":611,"ha":611,"o":"m 650 106 q 634 59 612 37 q 590 15 501 -2 q 412 -18 313 -18 q 157 -18 157 88 q 157 118 174 201 l 269 681 q 277 722 277 740 q 277 757 266 771 q 331 795 356 795 q 386 795 386 761 q 386 752 370 675 l 285 247 q 267 154 267 118 q 267 57 402 57 q 522 57 650 106 z"},"3":{"x_min":0,"x_max":675,"ha":675,"o":"m 251 350 q 282 422 340 422 q 362 422 392 415 q 541 462 541 580 q 541 625 508 655 q 475 684 423 684 q 346 684 290 616 l 290 635 q 290 686 334 713 q 378 741 458 741 q 541 741 590 702 q 639 663 639 598 q 639 473 471 396 q 621 354 621 220 q 621 118 539 50 q 457 -18 333 -18 q 147 -18 147 81 q 147 92 149 116 q 222 42 335 42 q 414 42 468 89 q 521 136 521 206 q 521 259 490 288 q 458 317 380 336 q 350 328 325 328 q 283 328 251 350 z"},";":{"x_min":0,"x_max":349,"ha":349,"o":"m 94 -102 q 110 -105 121 -105 q 156 -105 180 -76 q 205 -46 205 -5 q 205 56 144 98 q 195 133 236 133 q 304 133 304 54 q 304 -21 250 -87 q 196 -154 135 -154 q 101 -154 94 -102 z m 227 565 l 262 572 q 298 579 314 579 q 356 579 356 534 q 356 516 351 492 l 344 458 l 322 455 q 275 446 265 446 q 230 446 230 481 q 230 491 232 501 l 235 514 q 236 522 236 531 q 236 551 227 565 z"},"J":{"x_min":0,"x_max":540,"ha":540,"o":"m 492 670 l 406 238 q 360 8 258 -98 q 157 -205 42 -205 q -17 -205 -67 -172 q -117 -140 -117 -102 q -117 -55 -51 -16 q -51 -72 -16 -105 q 19 -139 78 -139 q 166 -139 210 -72 q 255 -5 292 179 l 386 655 q 316 642 298 642 q 236 642 229 720 q 250 708 280 708 q 319 708 408 727 l 455 737 q 518 750 564 750 q 618 750 641 729 q 663 707 671 648 q 627 678 569 678 q 538 678 492 670 z"},"V":{"x_min":0,"x_max":670,"ha":670,"o":"m 250 -19 q 259 34 259 106 q 259 269 200 514 q 173 630 153 671 q 132 712 90 739 q 139 792 171 792 q 233 792 289 594 q 362 334 362 110 q 668 520 668 671 q 668 693 657 713 q 698 741 741 741 q 780 741 780 703 q 780 638 696 490 q 612 343 464 146 q 386 44 354 19 q 321 -6 250 -19 z"},"\"":{"x_min":0,"x_max":406,"ha":406,"o":"m 458 600 l 443 600 q 414 600 404 612 q 394 625 394 661 l 393 688 q 393 796 368 840 l 379 840 l 393 840 q 470 840 470 798 q 470 785 464 734 l 458 692 q 452 639 452 626 q 452 612 458 600 z m 288 600 l 272 599 q 244 599 233 612 q 223 625 223 661 l 222 688 q 222 796 197 840 l 208 840 l 223 840 q 299 840 299 798 q 299 785 293 734 l 288 692 q 282 644 282 623 q 282 611 288 600 z"},"7":{"x_min":0,"x_max":675,"ha":675,"o":"m 700 723 l 681 629 q 524 493 425 322 q 325 151 325 18 q 325 -12 333 -47 q 318 -51 305 -51 q 210 -51 210 15 q 210 67 257 177 q 305 288 362 370 q 478 534 602 629 l 424 629 l 396 629 q 288 629 255 637 q 221 646 221 672 q 221 683 224 697 q 226 705 229 718 l 234 747 q 271 724 344 724 l 375 725 l 443 724 l 520 723 z"},"S":{"x_min":0,"x_max":560,"ha":560,"o":"m 131 170 q 131 91 175 45 q 218 0 295 0 q 364 0 414 41 q 464 82 464 137 q 464 196 354 300 l 300 350 q 197 445 197 526 q 197 620 270 680 q 343 741 457 741 q 517 741 554 722 q 591 704 591 675 q 591 646 564 608 q 522 690 426 690 q 367 690 326 653 q 285 616 285 562 q 285 526 299 507 q 312 488 382 424 l 426 383 q 546 271 546 183 q 546 79 464 11 q 382 -57 257 -57 q 174 -57 119 -18 q 65 21 65 81 q 65 121 131 170 z"},"}":{"x_min":0,"x_max":425,"ha":425,"o":"m 502 433 q 496 395 487 383 q 479 371 450 361 l 442 358 q 396 342 372 304 q 349 267 328 176 q 325 167 318 136 l 306 89 q 249 -145 83 -145 q 26 -145 21 -94 q 38 -98 51 -98 q 113 -98 146 -58 q 180 -19 206 84 l 212 108 q 242 229 277 283 q 312 337 391 386 q 287 398 287 472 q 287 522 322 604 l 338 641 q 371 714 371 740 q 371 804 283 804 q 254 804 222 794 q 236 855 296 855 q 467 855 467 739 q 467 701 431 615 l 418 583 q 382 494 382 468 q 382 425 453 425 q 476 425 502 433 z"},"Z":{"x_min":0,"x_max":641,"ha":641,"o":"m 170 96 q 230 100 287 100 q 512 100 589 63 q 626 45 626 -22 q 626 -33 624 -55 q 562 -18 480 -3 q 398 12 263 12 q 205 12 149 6 l 132 4 l 101 1 q 59 1 59 34 q 59 44 68 85 q 227 296 546 625 q 556 635 592 674 q 452 665 382 661 q 302 657 280 657 q 171 657 171 733 q 171 742 173 778 q 217 723 392 723 l 454 723 q 596 723 685 740 q 677 684 667 664 q 658 643 626 611 q 551 537 383 347 q 215 157 170 96 z"},"x":{"x_min":0,"x_max":643,"ha":643,"o":"m 328 163 q 229 26 205 -101 q 146 -65 146 -28 q 146 47 299 210 q 264 269 234 353 q 203 438 203 476 q 203 516 300 532 q 297 521 297 513 q 297 424 373 277 q 500 423 500 510 l 500 516 q 506 517 527 518 l 533 518 q 585 518 585 490 q 585 419 398 234 q 471 121 553 121 q 700 121 867 424 l 908 400 q 799 206 708 118 q 617 30 523 30 q 413 30 328 163 z"},")":{"x_min":0,"x_max":535,"ha":535,"o":"m 47 -109 q 228 -42 349 135 q 471 311 471 505 q 471 627 405 710 q 339 792 235 801 q 288 855 344 855 q 433 855 500 748 q 567 640 567 498 q 567 247 363 36 q 296 -33 211 -89 q 125 -145 86 -145 q 62 -145 47 -109 z"},"&":{"x_min":0,"x_max":864,"ha":864,"o":"m 649 126 q 514 -18 339 -18 q 227 -18 160 36 q 93 90 93 180 q 93 359 326 436 q 248 474 248 562 q 248 639 317 690 q 387 741 493 741 q 557 741 601 720 q 644 700 644 669 q 644 645 614 617 q 573 693 479 693 q 417 693 377 660 q 337 626 337 575 q 337 516 402 467 q 445 476 477 476 q 505 476 536 467 q 508 389 438 389 q 409 389 375 404 q 292 374 241 314 q 190 254 190 186 q 190 124 242 84 q 293 45 375 45 q 473 45 573 119 q 672 192 672 264 q 672 303 631 320 l 618 326 q 595 336 595 355 q 595 377 615 416 q 676 389 797 389 q 861 389 926 404 q 908 351 880 331 q 853 311 795 311 q 785 311 760 313 q 701 144 701 41 q 701 -38 729 -80 q 696 -111 656 -111 q 624 -111 624 -61 q 624 -3 649 126 z"},"_":{"x_min":0,"x_max":500,"ha":500,"o":"m 42 9 q 71 0 133 0 l 289 0 q 467 0 467 -89 l 467 -96 q 418 -72 310 -72 l 187 -72 q 115 -72 84 -55 q 54 -38 42 9 z"},"v":{"x_min":0,"x_max":564,"ha":564,"o":"m 270 -13 q 280 30 280 61 q 280 182 229 328 q 178 474 109 548 q 151 569 185 569 q 239 569 294 428 q 349 288 373 88 q 458 196 514 312 q 569 427 577 510 q 650 481 650 444 q 650 411 580 293 q 510 176 428 72 q 388 21 360 6 q 333 -8 270 -13 z"},"O":{"x_min":0,"x_max":864,"ha":864,"o":"m 449 640 q 525 741 649 741 q 755 741 824 664 q 893 587 893 469 q 893 285 745 133 q 597 -18 417 -18 q 288 -18 203 68 q 119 153 119 285 q 119 427 215 530 q 311 633 449 640 z m 412 586 q 325 565 275 493 q 225 421 225 315 q 225 198 293 121 q 361 45 467 45 q 594 45 691 165 q 789 285 789 443 q 789 535 740 597 q 692 660 621 660 q 549 660 497 601 q 444 543 444 463 q 444 406 471 358 q 417 368 400 387 q 382 406 382 455 q 382 518 412 586 z"},"(":{"x_min":0,"x_max":649,"ha":649,"o":"m 736 820 q 556 752 434 576 q 312 400 312 206 q 312 83 378 1 q 444 -82 548 -90 q 495 -145 439 -145 q 351 -145 283 -37 q 216 71 216 212 q 216 464 420 675 q 487 744 573 800 q 658 855 697 855 q 721 855 736 820 z"},"C":{"x_min":0,"x_max":708,"ha":708,"o":"m 704 201 q 713 179 713 167 q 713 103 605 42 q 496 -18 382 -18 q 257 -18 184 55 q 112 127 112 254 q 112 454 243 597 q 374 741 556 741 q 630 741 681 714 q 731 688 731 650 q 731 616 688 575 q 628 693 520 693 q 401 693 313 570 q 225 446 225 282 q 225 177 278 115 q 331 54 421 54 q 575 54 704 201 z"},"W":{"x_min":0,"x_max":948,"ha":948,"o":"m 200 -21 q 213 29 213 110 q 213 308 182 492 q 151 676 102 768 q 152 780 174 780 q 207 780 221 750 q 236 720 259 607 q 295 434 311 133 q 474 469 577 660 q 583 661 586 662 q 607 666 614 666 q 655 666 655 627 q 655 616 652 600 q 633 441 633 365 l 631 310 l 631 276 q 631 93 687 93 q 750 93 816 226 q 890 375 890 573 q 890 658 848 732 q 883 741 912 741 q 957 741 975 716 q 994 690 994 628 q 994 428 878 219 q 825 124 758 62 q 691 0 642 0 q 586 0 563 62 q 541 124 541 276 q 541 337 547 463 q 429 259 367 126 l 351 91 q 316 20 296 4 q 276 -11 200 -21 z"},"A":{"x_min":0,"x_max":762,"ha":762,"o":"m 265 240 l 255 222 q 193 107 193 44 q 193 25 208 8 q 196 4 155 -11 q 136 -18 119 -18 q 84 -18 84 15 q 84 83 169 222 l 184 247 l 159 247 q 79 247 35 222 q 58 304 159 304 l 219 303 l 232 322 q 309 438 467 632 q 520 698 546 714 q 573 730 648 744 q 634 656 634 580 q 634 379 681 173 q 706 60 758 27 q 712 -18 680 -18 q 603 -18 561 247 q 480 238 398 238 z m 300 298 l 398 295 q 500 295 553 302 q 531 474 531 586 l 531 623 q 515 603 459 534 q 357 410 310 317 z"},"f":{"x_min":0,"x_max":361,"ha":361,"o":"m 202 389 l 192 389 q 119 389 65 353 q 77 415 99 432 q 122 449 195 449 l 213 449 l 229 529 q 262 693 334 766 q 423 855 531 855 q 573 855 603 836 q 633 816 633 789 q 633 760 570 724 q 553 798 490 798 q 379 798 332 557 l 310 449 l 480 449 q 597 449 652 461 q 628 410 598 399 q 568 389 444 389 l 298 389 l 215 -30 q 203 -91 203 -136 q 203 -165 215 -188 q 167 -205 140 -205 q 100 -205 100 -159 q 100 -124 116 -42 z"},"Q":{"x_min":0,"x_max":862,"ha":862,"o":"m 451 639 q 532 741 653 741 q 758 741 827 662 q 895 583 895 462 q 895 326 809 207 q 723 87 571 16 q 715 -110 898 -153 q 845 -205 789 -205 q 750 -205 669 -148 q 588 -91 506 -5 q 461 -18 417 -18 q 289 -18 204 69 q 120 155 120 286 q 120 428 215 530 q 311 632 451 639 z m 421 587 q 329 568 277 496 q 224 423 224 314 q 224 198 288 126 q 353 54 463 45 q 388 118 388 159 q 388 193 427 228 q 453 135 530 53 q 640 85 714 198 q 789 310 789 442 q 789 533 742 592 q 694 651 621 651 q 556 651 510 606 q 465 561 465 497 l 465 477 q 409 487 409 531 q 409 558 421 587 z"},"w":{"x_min":0,"x_max":837,"ha":837,"o":"m 226 -11 q 238 32 238 89 q 238 228 204 361 q 170 495 122 549 q 167 569 195 569 q 248 569 285 447 q 321 324 335 103 q 407 195 457 301 q 506 406 506 465 q 506 470 506 481 q 548 497 571 497 q 613 497 613 465 q 613 455 596 358 q 592 334 590 316 l 587 283 q 584 245 584 196 q 584 60 646 60 q 704 60 748 159 q 792 258 792 388 q 792 480 745 499 q 789 533 827 533 q 885 533 885 442 q 885 309 792 134 q 709 -18 611 -18 q 500 -18 500 169 l 504 283 q 449 158 386 73 q 324 -11 226 -11 z"},"-":{"x_min":0,"x_max":481,"ha":481,"o":"m 243 253 q 271 339 333 339 q 344 339 357 338 l 410 332 q 426 331 440 331 q 479 331 497 352 q 482 257 428 257 q 416 257 398 259 l 362 263 q 324 268 303 268 q 272 268 243 253 z"},"E":{"x_min":0,"x_max":620,"ha":620,"o":"m 314 361 l 290 236 q 274 158 274 125 q 274 60 400 60 q 525 60 620 104 q 598 31 547 14 q 517 4 440 -7 q 364 -18 323 -18 q 164 -18 164 88 q 164 116 179 197 l 212 361 l 205 361 q 155 361 109 340 q 136 393 153 407 q 170 422 208 422 l 224 422 l 272 663 l 258 663 q 167 663 90 605 q 115 683 157 706 q 190 723 362 723 l 507 723 q 645 723 731 750 q 692 689 662 676 q 632 663 532 663 l 375 663 l 326 422 l 427 422 q 533 422 596 449 q 563 387 537 374 q 511 361 416 361 z"},"s":{"x_min":0,"x_max":429,"ha":429,"o":"m 420 172 q 437 135 437 101 q 437 26 374 -29 q 312 -84 228 -84 q 178 -84 144 -59 q 109 -34 109 2 q 109 40 156 79 q 204 118 316 172 l 277 235 q 206 350 206 414 q 206 507 313 563 q 380 538 380 500 q 380 445 295 395 l 351 292 l 395 213 q 488 269 535 308 q 583 348 655 431 l 694 407 q 589 267 420 172 z m 337 128 q 193 51 193 8 q 193 -32 251 -32 q 294 -32 321 -3 q 348 26 348 72 q 348 100 337 128 z"},">":{"x_min":0,"x_max":675,"ha":675,"o":"m 539 292 q 437 334 339 390 q 275 425 253 452 q 231 479 231 519 q 231 544 236 571 q 292 503 422 428 q 553 354 694 310 q 668 268 575 232 l 522 212 q 507 206 446 183 q 234 103 107 11 q 115 104 179 147 q 244 189 539 292 z"},"l":{"x_min":0,"x_max":406,"ha":406,"o":"m 671 398 q 570 206 468 97 q 366 -12 287 -12 q 230 -12 195 32 q 160 76 160 147 q 160 188 174 261 l 271 750 q 252 747 238 747 q 126 747 126 841 l 126 852 q 185 819 258 819 q 332 819 387 855 l 274 268 q 259 189 259 159 q 259 77 319 77 q 378 77 437 143 q 497 209 632 425 z"},"8":{"x_min":0,"x_max":675,"ha":675,"o":"m 494 394 l 514 378 q 636 287 636 193 q 636 101 561 41 q 487 -18 370 -18 q 262 -18 196 31 q 130 80 130 161 q 130 293 331 403 q 234 482 234 563 q 234 643 295 692 q 356 741 454 741 q 543 741 599 699 q 654 658 654 592 q 654 462 494 394 z m 454 426 q 559 479 559 579 q 559 628 525 661 q 491 693 439 693 q 393 693 362 663 q 330 633 330 589 q 330 528 426 449 z m 369 369 q 228 287 228 169 q 228 113 277 72 q 325 30 391 30 q 452 30 495 72 q 538 113 538 172 q 538 249 399 348 z"},"\\":{"x_min":0,"x_max":494,"ha":494,"o":"m 390 -153 q 395 -125 395 -97 q 395 76 301 410 q 208 745 131 847 q 157 855 174 855 q 241 855 280 729 q 340 536 411 237 q 437 127 448 78 q 470 -14 470 -48 q 470 -109 390 -153 z"},"e":{"x_min":0,"x_max":585,"ha":585,"o":"m 228 203 q 228 60 349 60 q 454 60 581 160 q 707 260 809 424 l 850 401 q 754 222 601 105 q 448 -12 311 -12 q 223 -12 172 44 q 121 101 121 199 q 121 341 214 441 q 306 542 437 542 q 500 542 537 510 q 575 479 575 425 q 575 338 470 271 q 365 203 228 203 z m 232 250 q 334 255 407 309 q 480 362 480 432 q 480 494 424 494 q 358 494 302 423 q 246 352 232 250 z"},"b":{"x_min":0,"x_max":657,"ha":657,"o":"m 640 340 q 647 316 647 292 q 647 169 561 78 q 475 -12 359 -12 q 274 -12 220 39 q 167 89 167 169 q 167 228 188 336 l 271 750 q 247 746 229 746 q 124 746 124 854 q 156 824 226 824 q 287 824 388 855 l 273 277 q 262 219 262 174 q 262 114 293 76 q 325 39 376 39 q 453 39 506 109 q 560 178 560 277 q 560 326 543 372 q 482 393 443 425 q 403 458 403 490 q 403 506 417 533 q 549 523 618 419 q 681 389 751 389 q 823 389 897 432 l 922 393 q 837 328 732 328 q 684 328 640 340 z"},"%":{"x_min":0,"x_max":832,"ha":832,"o":"m 222 -98 q 167 -71 167 -27 q 167 34 372 269 q 611 543 696 627 q 611 584 528 584 q 512 584 483 587 q 484 579 484 575 q 484 484 429 421 q 374 358 294 358 q 233 358 193 396 q 153 433 153 489 q 153 552 193 609 q 233 666 278 666 q 301 666 314 640 q 273 624 248 583 q 222 542 222 493 q 222 456 246 431 q 270 407 305 407 q 353 407 383 450 q 414 494 414 561 q 414 576 410 596 q 339 625 339 656 q 339 682 380 719 q 426 645 545 645 q 682 645 775 719 l 786 728 q 813 750 826 750 q 845 750 863 724 q 742 622 500 329 q 354 150 292 57 q 231 -36 222 -98 z m 674 328 q 694 353 718 353 q 754 353 787 304 q 820 256 820 202 q 820 120 763 60 q 707 0 629 0 q 570 0 532 40 q 494 80 494 141 q 494 217 542 267 q 590 317 674 328 z m 702 287 q 689 289 683 289 q 636 289 600 245 q 563 201 563 146 q 563 51 643 51 q 688 51 719 89 q 751 126 751 179 q 751 245 702 287 z"},"m":{"x_min":0,"x_max":1075,"ha":1075,"o":"m 292 171 q 468 542 603 542 q 662 542 662 457 q 662 420 636 292 l 607 144 q 692 324 785 433 q 878 542 945 542 q 1020 542 1020 455 q 1020 424 998 312 l 982 236 q 969 167 969 134 q 969 75 1010 75 q 1104 75 1298 424 l 1339 401 q 1127 -12 969 -12 q 868 -12 868 120 q 868 164 888 261 l 901 328 q 915 396 915 413 q 915 434 894 434 q 841 434 705 225 q 581 34 581 6 q 581 3 583 -4 q 576 -5 559 -10 q 552 -13 537 -13 q 492 -13 492 31 q 492 44 506 110 q 512 134 517 162 l 538 265 q 560 377 560 399 q 560 432 536 432 q 483 432 381 243 q 279 56 279 20 q 279 9 287 0 q 260 -12 237 -12 q 187 -12 187 42 q 187 49 201 185 l 212 289 q 218 343 218 390 q 218 448 194 476 q 251 496 274 496 q 317 496 317 445 q 317 427 306 311 z"},"#":{"x_min":0,"x_max":675,"ha":675,"o":"m 295 217 l 287 202 q 242 120 242 65 q 242 54 246 37 q 224 30 203 30 q 167 30 167 60 q 167 75 187 128 q 206 180 222 205 l 229 217 l 214 217 q 141 217 84 185 q 96 242 120 260 q 143 278 204 278 l 241 277 l 256 277 l 333 440 l 318 440 q 215 440 160 411 q 166 426 168 434 q 183 475 207 486 q 230 497 298 497 l 362 497 l 365 505 q 418 632 418 692 q 418 712 414 735 q 431 741 454 741 q 491 741 491 694 q 491 640 436 516 l 428 497 l 549 497 l 559 516 q 562 522 575 553 q 606 627 634 651 q 661 675 715 675 q 726 675 738 672 q 690 636 621 497 l 632 497 q 691 497 742 520 q 736 474 707 457 q 678 440 606 440 l 593 440 l 558 361 q 554 352 522 277 l 536 277 q 625 277 675 321 q 672 266 635 241 q 597 217 515 217 l 498 217 q 467 120 467 49 q 467 23 477 2 q 447 -18 426 -18 q 390 -18 390 44 q 390 102 433 217 z m 323 277 l 455 277 q 467 306 493 365 q 499 376 525 440 l 399 440 z"},",":{"x_min":0,"x_max":349,"ha":349,"o":"m 94 -102 q 110 -105 121 -105 q 156 -105 180 -76 q 205 -46 205 -5 q 205 56 144 98 q 195 133 236 133 q 304 133 304 54 q 304 -21 250 -87 q 196 -154 135 -154 q 101 -154 94 -102 z"},"n":{"x_min":0,"x_max":807,"ha":807,"o":"m 292 175 q 465 542 603 542 q 711 542 711 327 l 712 268 q 712 166 722 126 q 733 87 761 87 q 803 87 856 154 q 910 221 1030 423 l 1071 399 q 964 196 879 98 q 794 0 727 0 q 665 0 639 60 q 614 120 614 268 l 614 310 q 614 390 604 423 q 593 455 568 455 q 503 455 360 198 q 325 135 315 117 q 277 51 277 22 q 277 10 284 0 q 255 -12 236 -12 q 187 -12 187 42 q 187 58 199 183 l 210 289 q 217 356 217 394 q 217 445 194 475 q 204 479 228 487 q 258 498 276 498 q 314 498 314 442 q 314 413 307 341 q 306 326 304 312 z"},"h":{"x_min":0,"x_max":750,"ha":750,"o":"m 245 214 q 391 542 542 542 q 603 542 629 491 q 656 441 656 328 l 657 269 q 657 117 702 114 q 738 113 816 201 q 894 290 974 423 l 1015 401 q 936 244 836 136 q 737 27 672 27 q 612 27 586 83 q 560 140 560 267 l 560 311 q 560 458 509 458 q 437 458 326 260 q 213 61 213 24 q 213 12 223 0 q 201 -12 166 -12 q 122 -12 122 26 q 122 53 153 189 q 154 193 166 252 l 266 756 q 233 744 200 744 q 105 744 105 855 q 152 820 214 820 q 301 820 382 855 l 302 452 q 300 445 257 270 q 253 255 245 214 z"},"z":{"x_min":0,"x_max":622,"ha":622,"o":"m 562 75 q 579 32 579 4 q 579 -123 490 -224 q 402 -325 292 -325 q 228 -325 186 -293 q 144 -261 144 -211 q 144 -111 445 66 q 405 84 360 84 q 289 84 210 48 q 209 62 209 69 q 209 131 253 148 q 280 187 354 276 l 479 427 q 427 413 378 407 l 339 402 q 240 392 198 348 q 210 441 241 468 q 272 494 371 494 l 415 494 q 509 494 546 526 q 564 500 564 471 q 564 441 521 391 q 510 377 424 268 l 343 164 q 375 168 397 168 q 473 168 529 122 q 714 247 846 427 l 887 402 q 779 230 562 75 z m 484 27 q 229 -136 229 -213 q 229 -240 251 -259 q 273 -277 306 -277 q 376 -277 440 -202 q 504 -127 504 -45 q 504 -8 484 27 z"},"B":{"x_min":0,"x_max":754,"ha":754,"o":"m 95 466 q 82 493 82 517 q 82 601 218 671 q 354 741 517 741 q 607 741 663 706 q 719 671 719 615 q 719 511 571 420 q 658 396 707 349 q 756 302 756 242 q 756 124 627 41 q 499 -42 316 -42 q 182 -42 182 42 q 182 62 197 136 l 266 482 q 274 523 274 541 q 274 558 262 572 q 327 597 353 597 q 383 597 383 562 q 383 553 367 476 l 303 155 q 292 100 292 83 q 292 21 409 21 q 505 21 574 76 q 643 132 643 209 q 643 270 604 304 q 566 338 478 357 q 446 344 408 344 q 396 344 376 349 q 391 401 412 419 q 433 437 480 437 q 493 437 513 436 q 617 512 617 586 q 617 675 482 675 q 264 675 95 466 z"},"K":{"x_min":0,"x_max":738,"ha":738,"o":"m 306 354 l 254 96 q 245 50 245 36 q 245 22 251 7 q 201 -18 161 -18 q 136 -18 136 2 q 136 13 146 64 l 264 660 q 221 654 184 654 q 107 654 93 755 q 128 726 188 726 q 262 726 383 741 l 312 385 q 592 575 642 745 q 711 709 711 668 q 711 646 608 554 q 505 461 399 388 q 488 220 574 115 q 659 9 706 9 q 756 9 816 64 l 816 52 q 816 15 765 -24 q 714 -63 666 -63 q 541 -63 306 354 z"},"R":{"x_min":0,"x_max":801,"ha":801,"o":"m 102 464 q 82 487 82 519 q 82 600 219 670 q 357 741 514 741 q 756 741 756 586 q 756 512 704 459 q 652 407 523 350 q 640 84 724 84 q 769 84 819 146 q 822 134 822 129 q 822 88 773 44 q 725 0 680 0 q 566 0 437 312 q 411 304 390 304 q 379 304 371 308 q 389 400 462 400 q 477 400 499 395 q 659 448 659 573 q 659 619 613 648 q 567 678 497 678 q 376 678 266 618 q 155 558 102 464 z m 278 -47 q 228 -72 188 -72 q 162 -72 162 -52 q 162 -41 173 9 l 267 482 q 275 523 275 541 q 275 558 264 572 q 329 597 354 597 q 385 597 385 562 q 385 553 369 476 l 282 42 q 273 -3 273 -22 q 273 -32 278 -47 z"},"T":{"x_min":0,"x_max":664,"ha":664,"o":"m 498 647 l 388 96 q 378 50 378 36 q 378 22 385 7 q 334 -18 294 -18 q 269 -18 269 2 q 269 13 279 63 l 395 647 l 327 647 q 211 647 127 625 q 144 690 171 707 q 198 723 291 723 l 621 723 q 754 723 797 819 q 814 790 814 772 q 814 709 736 670 q 688 647 556 647 z"},"P":{"x_min":0,"x_max":687,"ha":687,"o":"m 328 256 l 285 42 q 276 -4 276 -18 q 276 -32 282 -47 q 232 -72 192 -72 q 167 -72 167 -52 q 167 -41 176 9 l 228 265 q 104 293 104 347 q 104 358 109 376 q 162 333 237 313 l 271 482 q 279 523 279 541 q 279 558 267 572 q 332 597 357 597 q 388 597 388 562 q 388 553 372 476 l 337 304 q 478 304 567 374 q 657 443 657 551 q 657 611 610 647 q 563 684 487 684 q 258 684 120 492 q 108 522 108 540 q 108 613 240 677 q 373 741 526 741 q 760 741 760 569 q 760 443 638 350 q 517 256 355 256 z"},"|":{"x_min":0,"x_max":301,"ha":301,"o":"m 174 -145 q 97 -141 97 -102 q 97 -88 111 -20 l 235 607 q 255 706 255 747 q 255 764 250 783 q 329 772 329 729 q 329 708 314 638 q 308 610 306 600 l 183 -18 q 171 -80 171 -114 q 171 -127 174 -145 z"},"t":{"x_min":0,"x_max":439,"ha":439,"o":"m 500 193 q 513 169 513 151 q 513 104 432 46 q 351 -12 285 -12 q 226 -12 189 40 q 152 92 152 175 q 152 267 201 436 l 223 518 l 141 518 q 89 518 58 503 q 86 555 105 568 q 124 582 168 582 l 242 582 l 251 615 q 274 690 305 719 q 336 747 399 747 q 406 747 422 746 q 384 697 343 582 l 601 582 q 669 582 705 599 q 692 549 672 533 q 652 518 597 518 l 322 518 q 317 502 315 494 q 256 293 256 190 q 256 77 337 77 q 379 77 429 113 q 479 148 500 193 z"},"M":{"x_min":0,"x_max":937,"ha":937,"o":"m 300 474 l 236 153 q 224 91 224 56 q 224 19 255 -1 q 202 -18 172 -18 q 122 -18 122 22 q 122 66 151 180 l 259 596 l 239 657 q 205 760 173 783 q 219 812 255 812 q 282 812 302 770 q 321 728 372 555 q 382 521 389 500 l 398 476 q 472 260 527 260 q 587 260 695 435 q 802 610 811 723 q 865 741 891 741 q 939 741 939 688 q 939 670 928 590 q 917 518 913 474 l 879 155 q 875 122 875 90 q 875 -7 915 -31 q 865 -66 829 -66 q 771 -66 771 54 q 771 103 778 172 l 821 576 q 763 401 671 279 q 579 156 507 156 q 450 156 395 240 q 340 325 300 474 z"},"g":{"x_min":0,"x_max":714,"ha":714,"o":"m 529 293 q 481 196 392 122 q 302 48 230 48 q 177 48 144 84 q 110 121 110 178 q 110 313 212 427 q 315 542 436 542 q 499 542 571 506 q 581 553 599 565 q 618 578 693 585 q 655 509 621 220 l 614 170 q 824 296 938 428 l 979 402 q 871 262 611 96 q 609 77 609 68 q 602 -55 583 -113 q 564 -171 516 -223 q 421 -325 286 -325 q 213 -325 167 -291 q 122 -256 122 -202 q 122 -148 161 -108 q 201 -68 309 -11 q 381 27 512 102 z m 554 420 q 490 488 414 488 q 342 488 278 397 q 214 307 214 205 q 214 132 267 132 q 319 132 405 219 q 490 305 554 420 z m 507 37 q 479 20 392 -29 q 223 -124 223 -197 q 223 -229 250 -250 q 278 -271 320 -271 q 507 -271 507 37 z"},"j":{"x_min":0,"x_max":285,"ha":285,"o":"m -101 -181 q -103 -192 -103 -198 q -103 -230 -81 -254 q -59 -277 -29 -277 q 40 -277 82 -185 q 100 -144 133 26 l 176 241 q 200 357 200 404 q 200 432 184 449 q 247 464 263 464 q 299 464 299 413 q 299 375 285 305 l 229 19 q 195 -151 139 -218 q 50 -325 -57 -325 q -100 -325 -133 -305 q -166 -286 -166 -259 q -166 -226 -101 -181 z m 274 646 l 281 645 q 314 647 375 678 q 437 709 472 742 q 450 675 395 629 q 312 560 283 560 q 264 560 264 584 q 264 618 274 646 z"},"i":{"x_min":0,"x_max":443,"ha":443,"o":"m 708 399 q 598 206 485 97 q 373 -12 283 -12 q 228 -12 195 23 q 161 59 161 117 q 161 139 171 187 l 182 241 q 206 357 206 404 q 206 432 189 449 q 252 464 269 464 q 305 464 305 413 q 305 375 291 305 l 271 210 q 257 141 257 121 q 257 60 309 60 q 370 60 471 163 q 573 266 668 423 z m 274 646 l 281 645 q 313 646 375 678 q 436 709 471 742 q 449 675 395 629 q 312 560 282 560 q 263 560 263 584 q 263 618 274 646 z"},"y":{"x_min":0,"x_max":575,"ha":575,"o":"m 334 3 q 313 134 260 262 q 207 390 145 458 q 181 488 219 488 q 251 488 273 458 q 295 429 328 339 q 379 199 404 85 q 569 347 583 542 q 668 529 668 485 q 668 438 592 292 q 515 146 426 24 q 323 -116 222 -197 q 121 -277 48 -277 q -17 -277 -17 -222 q -17 -200 -5 -169 q 21 -186 61 -186 q 204 -186 334 3 z"},"@":{"x_min":0,"x_max":931,"ha":931,"o":"m 732 71 q 724 15 705 -9 q 680 -41 613 -63 q 546 -84 474 -84 q 309 -84 210 8 q 112 100 112 254 q 112 457 269 611 q 426 765 633 765 q 775 765 871 676 q 967 586 967 454 q 967 341 902 262 q 836 184 742 184 q 644 184 644 313 q 644 330 646 363 q 512 153 405 153 q 315 153 315 274 q 315 395 387 482 q 458 569 558 569 q 621 569 686 533 q 704 557 751 557 q 760 557 780 556 q 717 462 717 325 q 717 250 770 250 q 828 250 872 311 q 917 373 917 453 q 917 564 835 639 q 754 714 634 714 q 450 714 317 580 q 184 447 184 263 q 184 129 264 46 q 345 -36 474 -36 q 604 -36 732 71 z m 665 471 q 608 518 553 518 q 491 518 442 452 q 393 386 393 302 q 393 226 439 226 q 468 226 536 299 q 603 373 665 471 z"},".":{"x_min":0,"x_max":329,"ha":329,"o":"m 156 117 l 191 124 q 226 131 242 131 q 285 131 285 86 q 285 69 280 44 l 273 11 l 251 7 q 203 -2 194 -2 q 159 -2 159 34 q 159 44 161 53 l 164 66 q 166 74 166 83 q 166 104 156 117 z"},"p":{"x_min":0,"x_max":611,"ha":611,"o":"m 223 30 l 187 -150 q 175 -211 175 -257 q 175 -286 188 -309 q 138 -325 112 -325 q 72 -325 72 -279 q 72 -244 88 -163 l 230 554 q 188 545 159 545 q 117 545 96 566 q 76 586 64 641 q 100 617 172 617 q 263 617 346 650 l 309 462 q 392 542 480 542 q 558 542 610 483 q 662 424 662 336 q 662 199 566 100 q 471 0 340 0 q 270 0 223 30 z m 238 106 q 287 48 359 48 q 445 48 505 121 q 565 193 565 296 q 565 371 531 417 q 497 464 442 464 q 374 464 294 387 z"},"X":{"x_min":0,"x_max":685,"ha":685,"o":"m 337 317 l 323 302 q 158 125 149 -18 l 122 -1 q 71 30 71 55 q 71 90 136 176 q 201 261 285 337 l 312 362 l 300 384 q 266 441 229 539 q 193 636 193 669 q 193 717 256 737 l 279 745 q 282 699 316 602 q 351 504 386 439 l 396 422 l 412 434 q 478 484 521 557 q 564 630 564 692 q 564 704 561 717 l 574 724 q 606 741 635 741 q 665 741 665 710 q 665 648 600 558 q 535 468 434 390 l 419 378 l 429 358 q 476 265 553 174 q 602 116 634 96 q 665 77 709 77 q 727 77 750 86 q 691 -9 633 -9 q 575 -9 487 90 q 458 122 410 193 q 362 263 347 295 z"},"*":{"x_min":0,"x_max":485,"ha":485,"o":"m 382 408 q 310 408 310 456 q 310 489 330 586 q 251 528 235 485 q 197 507 197 534 q 197 559 324 627 q 211 686 211 726 q 211 753 242 772 q 271 718 345 660 l 349 734 q 349 795 369 818 q 389 840 446 843 q 410 760 387 660 q 485 723 518 723 q 548 723 553 660 q 540 668 527 668 q 478 668 390 618 q 447 584 487 545 q 526 505 526 483 q 526 459 478 453 q 452 517 373 592 q 370 557 370 519 q 370 457 382 408 z"},"Y":{"x_min":0,"x_max":584,"ha":584,"o":"m 392 338 l 344 96 q 335 50 335 36 q 335 22 341 7 q 291 -18 251 -18 q 225 -18 225 2 q 225 13 235 63 l 290 338 q 260 471 199 583 q 139 695 77 732 q 128 768 154 768 q 248 768 374 385 q 470 469 543 560 q 615 651 615 687 q 615 707 599 722 q 641 741 665 741 q 705 741 705 698 q 705 651 608 540 q 511 428 392 338 z"},"c":{"x_min":0,"x_max":571,"ha":571,"o":"m 836 399 q 718 201 585 87 q 453 -27 340 -27 q 246 -27 187 37 q 128 102 128 205 q 128 340 229 441 q 331 542 467 542 q 522 542 557 521 q 593 500 593 467 q 593 413 501 386 q 506 398 506 409 q 506 488 422 488 q 350 488 288 406 q 227 325 227 229 q 227 150 268 100 q 309 51 374 51 q 554 51 795 423 z"},"!":{"x_min":0,"x_max":384,"ha":384,"o":"m 357 197 q 350 195 331 191 q 324 190 315 190 q 273 190 273 229 q 273 250 282 293 l 292 342 q 328 520 328 671 q 328 686 324 705 q 367 723 381 723 q 430 723 430 671 q 430 625 391 463 q 374 390 364 342 l 357 309 q 350 272 350 239 q 350 217 357 197 z m 226 117 l 261 124 q 296 131 312 131 q 355 131 355 86 q 355 69 350 44 l 344 11 l 321 7 q 273 -2 264 -2 q 229 -2 229 34 q 229 44 231 53 l 234 66 q 236 74 236 83 q 236 104 226 117 z"},"/":{"x_min":0,"x_max":456,"ha":456,"o":"m 152 -145 q 75 -118 75 -75 q 75 -1 250 346 l 298 438 q 438 713 493 784 q 548 855 623 855 q 639 855 658 851 q 511 730 314 324 l 293 280 q 150 -17 150 -122 q 150 -131 152 -145 z"},"[":{"x_min":0,"x_max":543,"ha":543,"o":"m 649 857 q 633 813 616 799 q 598 786 558 786 l 514 786 l 463 786 l 319 59 q 304 -16 304 -48 q 304 -110 402 -110 q 438 -110 473 -97 q 461 -137 441 -149 q 422 -162 371 -162 q 220 -162 220 -42 q 220 -6 234 73 l 388 843 l 515 843 q 611 843 649 857 z"},"6":{"x_min":0,"x_max":675,"ha":675,"o":"m 254 354 q 323 455 443 455 q 528 455 584 398 q 640 342 640 258 q 640 147 560 65 q 480 -18 373 -18 q 271 -18 208 56 q 145 130 145 249 q 145 460 248 601 q 352 741 507 741 q 573 741 613 719 q 653 698 653 662 q 653 650 648 626 q 587 675 505 675 q 414 675 344 586 q 275 497 254 354 z m 241 257 q 241 147 273 97 q 316 30 383 30 q 448 30 497 97 q 546 163 546 250 q 546 309 512 346 q 478 382 424 382 q 301 382 241 257 z"},"r":{"x_min":0,"x_max":541,"ha":541,"o":"m 248 3 q 215 -12 195 -12 q 145 -12 145 32 q 145 54 163 144 l 187 265 q 209 374 209 426 q 209 454 193 473 q 245 491 277 491 q 311 491 311 447 q 311 420 287 306 l 259 164 q 351 343 445 443 q 538 542 614 542 q 641 542 661 527 q 680 511 680 489 q 680 455 606 398 q 587 437 553 437 q 491 437 395 305 q 335 223 292 136 q 248 49 248 12 z"},"2":{"x_min":0,"x_max":675,"ha":675,"o":"m 645 -13 q 570 21 442 21 q 337 21 234 5 l 204 0 q 162 -6 150 -6 q 115 -6 115 37 q 115 50 119 76 q 284 185 403 331 q 522 478 522 574 q 522 668 418 668 q 299 668 209 533 q 204 562 204 579 q 204 638 283 689 q 363 741 454 741 q 533 741 581 703 q 629 665 629 603 q 629 422 232 92 q 398 114 507 114 q 588 114 613 91 q 638 68 645 -13 z"},"{":{"x_min":0,"x_max":560,"ha":560,"o":"m 213 392 q 243 376 265 376 q 351 376 392 552 l 402 597 q 463 855 625 855 q 689 855 695 801 q 679 805 666 805 q 602 805 571 769 q 539 734 512 632 l 496 575 q 467 467 421 413 q 375 358 290 331 q 410 291 410 200 q 410 145 379 71 l 364 36 q 342 -17 342 -34 q 342 -95 438 -95 q 461 -95 489 -88 q 468 -145 410 -145 q 246 -145 246 -27 q 246 4 268 55 l 282 91 q 290 110 297 127 q 327 198 327 230 q 327 271 273 296 l 254 305 q 210 326 210 360 q 210 371 213 392 z"},"9":{"x_min":0,"x_max":675,"ha":675,"o":"m 565 369 q 497 268 376 268 q 291 268 235 324 q 179 380 179 465 q 179 576 259 658 q 339 741 447 741 q 548 741 611 667 q 674 593 674 474 q 674 263 571 122 q 468 -18 312 -18 q 246 -18 206 3 q 166 25 166 61 q 166 73 171 97 q 232 48 314 48 q 405 48 475 137 q 544 226 565 369 z m 579 466 q 579 576 546 626 q 503 693 436 693 q 372 693 323 626 q 273 560 273 473 q 273 414 307 377 q 341 340 396 340 q 518 340 579 466 z"}," ":{"x_min":0,"x_max":337,"ha":337,"o":""},"I":{"x_min":0,"x_max":545,"ha":545,"o":"m 450 671 l 330 64 q 423 76 462 76 q 525 76 525 -12 q 490 0 450 0 q 412 0 357 -7 l 246 -22 q 186 -30 162 -30 q 121 -30 104 -11 q 87 9 83 61 q 118 42 156 42 q 176 42 224 49 l 345 656 q 292 647 254 647 q 187 647 187 727 q 206 714 234 714 q 270 714 337 727 l 414 741 q 495 756 537 756 q 603 756 613 667 q 586 681 556 681 q 519 681 472 674 q 464 672 450 671 z"},"H":{"x_min":0,"x_max":865,"ha":865,"o":"m 353 350 l 292 42 q 282 -3 282 -22 q 282 -32 288 -47 q 239 -72 199 -72 q 173 -72 173 -52 q 173 -42 183 9 l 250 350 l 230 350 q 159 350 82 310 q 103 369 136 389 q 170 410 246 410 l 263 410 l 313 663 q 270 657 233 657 q 156 657 142 758 q 177 729 236 729 q 314 729 432 744 l 365 410 l 622 410 q 668 618 719 719 q 748 774 771 789 q 793 804 861 809 q 869 810 886 811 q 770 678 722 410 l 730 410 q 769 410 825 444 q 813 350 731 350 l 709 350 q 695 273 695 189 q 695 48 781 48 q 817 48 860 79 q 853 -18 733 -18 q 593 -18 593 196 q 593 268 610 350 z"},"4":{"x_min":0,"x_max":675,"ha":675,"o":"m 519 263 l 504 188 q 487 101 487 57 q 487 22 500 0 q 463 -18 434 -18 q 389 -18 389 40 q 389 66 408 159 l 429 263 q 354 257 257 243 l 232 239 q 164 229 150 229 q 114 229 114 255 q 114 274 121 311 q 269 513 327 744 q 374 756 400 756 q 424 756 424 738 q 424 705 350 572 q 275 440 184 311 q 325 338 445 348 l 483 535 q 488 561 489 567 q 496 600 496 618 q 496 638 492 653 q 520 663 542 663 q 588 663 588 619 q 588 602 574 536 q 566 499 563 487 l 536 348 q 558 350 575 350 q 652 350 675 327 q 698 304 705 223 q 646 256 519 263 z"},"~":{"x_min":0,"x_max":675,"ha":675,"o":"m 175 208 q 128 221 128 266 q 128 309 170 344 q 211 379 262 379 q 302 379 376 337 l 416 315 q 494 271 527 271 q 608 271 608 371 q 655 354 655 312 q 655 266 612 231 q 569 196 515 196 q 463 196 379 244 l 332 271 q 274 304 248 304 q 218 304 196 280 q 175 256 175 222 q 175 217 175 208 z"},"D":{"x_min":0,"x_max":866,"ha":866,"o":"m 94 461 q 82 487 82 514 q 82 602 216 671 q 351 741 521 741 q 699 741 802 662 q 905 583 905 445 q 905 262 745 122 q 661 48 534 1 q 407 -45 292 -45 q 180 -45 180 38 q 180 68 199 163 l 263 482 q 271 523 271 541 q 271 558 259 572 q 324 597 350 597 q 380 597 380 562 q 380 553 364 476 l 311 209 q 291 107 291 81 q 291 51 311 41 q 331 30 385 30 q 562 30 682 138 q 802 246 802 406 q 802 529 715 604 q 628 678 483 678 q 366 678 264 621 q 162 564 94 461 z"},"^":{"x_min":0,"x_max":675,"ha":675,"o":"m 461 566 q 391 428 283 296 q 228 229 192 209 q 157 190 90 190 q 198 291 311 454 q 424 618 459 723 q 491 710 500 693 q 510 677 526 604 l 535 566 q 587 342 678 190 q 601 190 561 260 q 521 329 461 566 z"},"0":{"x_min":0,"x_max":675,"ha":675,"o":"m 318 -18 q 222 -18 165 54 q 108 126 108 248 q 108 447 221 594 q 334 741 489 741 q 589 741 646 669 q 704 597 704 471 q 704 271 589 127 q 475 -18 318 -18 z m 358 36 q 453 36 525 160 q 597 285 597 447 q 597 686 451 686 q 356 686 285 562 q 214 439 214 274 q 214 36 358 36 z"},"F":{"x_min":0,"x_max":613,"ha":613,"o":"m 347 307 l 280 -30 q 271 -77 271 -90 q 271 -104 277 -120 q 228 -145 187 -145 q 161 -145 161 -124 q 161 -113 171 -63 l 245 307 l 237 307 q 193 307 143 286 q 167 338 185 353 q 203 368 243 368 l 256 368 l 315 660 l 304 660 q 198 660 135 602 q 154 679 201 705 q 234 723 407 723 l 535 723 q 679 723 774 748 q 744 695 711 677 q 678 659 609 659 l 566 660 l 417 660 l 359 368 l 464 368 q 562 368 626 393 q 603 337 573 322 q 542 307 453 307 z"},"`":{"x_min":0,"x_max":675,"ha":675,"o":"m 609 626 q 598 625 592 625 q 535 625 478 686 q 429 737 428 756 q 426 782 509 802 q 539 697 609 626 z"},"k":{"x_min":0,"x_max":648,"ha":648,"o":"m 272 279 l 249 163 q 236 102 236 56 q 236 28 249 4 q 199 -12 174 -12 q 134 -12 134 34 q 134 69 150 150 l 270 753 q 225 737 193 737 q 136 737 136 788 q 136 805 146 849 q 181 813 231 813 q 296 813 385 855 l 277 305 q 354 397 444 470 q 535 542 573 542 q 596 542 625 477 q 577 471 494 423 q 411 375 358 323 q 481 129 573 129 q 616 129 657 160 q 699 191 767 275 q 832 355 874 425 l 914 401 q 825 238 726 137 q 627 36 555 36 q 495 36 409 110 q 323 184 272 279 z"},"u":{"x_min":0,"x_max":781,"ha":781,"o":"m 572 301 q 504 162 421 75 q 338 -12 272 -12 q 219 -12 186 25 q 153 63 153 123 q 153 200 205 406 q 219 462 219 477 q 219 491 209 508 l 277 509 q 320 509 320 475 q 320 454 292 354 q 283 325 281 313 l 273 284 q 252 194 252 147 q 252 75 302 75 q 383 75 509 277 q 611 442 611 512 q 611 521 605 531 q 646 542 673 542 q 716 542 716 516 q 716 510 712 498 q 710 490 703 462 q 702 457 693 422 q 687 398 684 384 l 679 361 q 663 280 663 210 q 663 103 715 103 q 829 103 1005 425 l 1046 400 q 846 15 680 15 q 568 15 568 209 q 568 246 572 301 z"},"]":{"x_min":0,"x_max":543,"ha":543,"o":"m 104 -162 q 121 -117 138 -104 q 156 -90 196 -90 l 240 -90 l 291 -90 l 435 637 q 450 711 450 744 q 450 806 352 806 q 316 806 281 792 q 293 833 312 845 q 332 857 383 857 q 534 857 534 737 q 534 696 520 623 l 366 -147 l 239 -147 q 142 -147 104 -162 z"},"U":{"x_min":0,"x_max":851,"ha":851,"o":"m 614 217 q 467 6 325 6 q 249 6 199 62 q 149 118 149 204 q 149 376 283 661 q 242 653 208 653 q 162 653 141 676 q 119 699 111 755 q 147 726 206 726 q 239 726 427 743 q 255 406 255 229 q 255 166 286 125 q 318 84 367 84 q 437 84 505 153 q 573 221 633 350 q 676 588 709 643 q 743 697 844 697 q 800 640 756 459 q 713 277 713 149 q 713 48 774 48 q 813 48 865 89 q 867 78 867 72 q 867 39 827 10 q 787 -18 740 -18 q 609 -18 609 149 q 609 172 614 217 z"},"o":{"x_min":0,"x_max":670,"ha":670,"o":"m 653 360 q 654 348 654 339 q 654 198 559 93 q 463 -12 334 -12 q 236 -12 175 51 q 113 113 113 213 q 113 327 193 411 q 272 494 381 494 q 397 494 416 490 q 404 512 404 527 q 404 550 420 572 q 539 562 618 450 q 699 395 787 395 q 844 395 911 433 l 935 392 q 857 337 776 337 q 722 337 653 360 z m 542 401 q 501 414 467 440 q 442 446 426 446 q 343 446 279 371 q 214 296 214 201 q 214 131 253 87 q 292 42 353 42 q 436 42 495 125 q 555 208 555 324 q 555 364 542 401 z"},"N":{"x_min":0,"x_max":814,"ha":814,"o":"m 304 541 l 242 229 q 225 140 225 94 q 225 26 263 -1 q 219 -18 182 -18 q 127 -18 127 32 q 127 80 186 330 l 258 641 l 244 679 q 215 757 172 772 q 247 807 267 807 q 299 807 316 777 q 332 746 459 445 q 603 106 648 106 q 682 106 714 250 q 746 394 746 546 q 746 668 688 707 q 735 741 774 741 q 832 741 832 646 q 832 571 806 416 q 780 260 750 154 q 700 -18 639 -18 q 586 -18 526 75 q 465 168 365 404 q 332 480 320 506 z"},"+":{"x_min":0,"x_max":675,"ha":675,"o":"m 117 223 q 133 298 159 313 q 185 328 299 328 l 366 328 l 376 380 q 387 437 387 484 q 387 527 358 553 q 375 555 383 555 q 466 555 466 493 q 466 469 447 375 l 438 328 l 484 328 q 629 328 674 360 q 663 289 632 272 q 602 256 478 256 l 423 256 l 417 226 q 402 148 402 100 q 402 63 420 34 q 414 33 410 32 q 383 27 370 27 q 317 27 317 72 q 317 89 328 142 q 336 183 339 194 l 351 256 l 296 256 q 179 256 117 223 z"},"G":{"x_min":0,"x_max":717,"ha":717,"o":"m 751 397 l 674 111 q 626 -64 602 -93 q 578 -122 472 -129 q 526 -57 586 100 q 481 0 371 0 q 258 0 185 75 q 111 151 111 267 q 111 452 269 596 q 427 741 630 741 q 766 741 766 687 q 766 664 719 610 q 714 604 705 594 q 671 675 565 675 q 423 675 318 562 q 214 448 214 294 q 214 190 267 128 q 320 66 407 66 q 486 66 544 125 q 603 185 623 284 l 626 305 q 476 305 385 264 q 403 326 429 343 q 455 359 548 368 l 609 373 q 682 378 751 397 z"},"q":{"x_min":0,"x_max":636,"ha":636,"o":"m 543 287 q 375 -12 234 -12 q 182 -12 151 34 q 121 80 121 157 q 121 310 213 426 q 305 542 426 542 q 499 542 584 496 q 599 541 694 541 l 708 541 q 680 494 667 427 l 552 -150 q 540 -211 540 -257 q 540 -286 553 -309 q 503 -325 478 -325 q 438 -325 438 -279 q 438 -244 454 -163 z m 568 415 q 466 482 399 482 q 326 482 273 392 q 219 302 219 180 q 219 81 283 81 q 353 81 550 388 q 553 392 568 415 z"},"d":{"x_min":0,"x_max":789,"ha":789,"o":"m 542 286 q 466 148 383 68 q 300 -12 234 -12 q 182 -12 151 33 q 121 79 121 156 q 121 310 212 426 q 304 542 426 542 q 499 542 584 496 l 637 759 q 594 750 565 750 q 522 750 502 770 q 482 791 470 846 q 505 822 578 822 q 668 822 752 855 l 646 320 q 628 230 628 167 q 628 83 676 83 q 723 83 832 193 q 941 303 1014 423 l 1054 398 q 967 239 837 113 q 707 -12 629 -12 q 530 -12 530 146 q 530 211 542 286 z m 568 415 q 467 482 399 482 q 326 482 273 392 q 219 302 219 180 q 219 81 284 81 q 353 81 550 388 q 554 393 568 415 z"},"1":{"x_min":0,"x_max":675,"ha":675,"o":"m 542 742 l 412 74 q 465 82 494 82 q 558 82 580 62 q 601 42 601 -17 q 575 0 531 0 q 483 0 414 -8 l 343 -17 q 311 -21 253 -30 q 235 -33 217 -33 q 163 -33 154 59 q 180 46 205 46 q 258 46 312 59 l 419 603 q 339 563 292 563 q 222 563 222 654 l 222 667 q 251 642 290 642 q 354 642 507 725 q 513 729 542 742 z"},"5":{"x_min":0,"x_max":675,"ha":675,"o":"m 238 393 l 311 736 q 378 723 450 723 q 574 723 666 753 q 648 692 609 667 q 569 642 490 642 q 418 642 360 650 l 313 481 q 354 488 381 488 q 490 488 559 421 q 627 355 627 250 q 627 136 546 59 q 464 -18 342 -18 q 160 -18 160 85 q 160 96 162 116 q 238 42 346 42 q 424 42 479 100 q 534 157 534 239 q 534 315 482 359 q 431 404 343 404 q 289 404 238 393 z"}}}
